<?xml version="1.0" encoding="utf-8"?>
<!-- Generator: Adobe Illustrator 17.0.0, SVG Export Plug-In . SVG Version: 6.00 Build 0)  -->
<!DOCTYPE svg PUBLIC "-//W3C//DTD SVG 1.1//EN" "http://www.w3.org/Graphics/SVG/1.1/DTD/svg11.dtd">
<svg version="1.1" id="Layer_1" xmlns="http://www.w3.org/2000/svg" xmlns:xlink="http://www.w3.org/1999/xlink" x="0px" y="0px"
	 width="100px" height="100px" viewBox="0 0 100 100" enable-background="new 0 0 100 100" xml:space="preserve">
<path fill="none" d="z"/>
<g>
	<path fill="#FFFFFF" d="M56.25,20.832c0,3.453-2.797,6.25-6.25,6.25s-6.25-2.797-6.25-6.25c0-3.449,2.797-6.25,6.25-6.25
		S56.25,17.383,56.25,20.832"/>
	<path fill="#FFFFFF" d="M77.082,29.168H22.918c-2.293,0-4.168,1.875-4.168,4.168s1.875,4.168,4.168,4.168h16.668v43.75
		c0,2.293,1.875,4.168,4.168,4.168s4.168-1.875,4.168-4.168l-0.004-22.922h4.168V81.25c0,2.293,1.875,4.168,4.168,4.168
		s4.168-1.875,4.168-4.168L60.418,37.5h16.668c2.293,0,4.168-1.875,4.168-4.168C81.25,31.043,79.375,29.168,77.082,29.168
		L77.082,29.168z"/>
</g>
<path fill="none" d="z"/>
</svg>
